# xmcd
#
# Track frame offsets:
# 150
# 12315
# 23042
# 35792
# 49165
# 62492
# 74280
# 83572
# 95037
# 108012
# 121440
#
# Disc length: 1790 seconds
#
#
# Revision: 5
# Processed by: cddbd v1.5.1PL2 Copyright (c) Steve Scherf et al.
# Submitted via: FreeRIP 2.944 
#
DISCID=8a06fc0b
DTITLE=Tammy Wynette - Tammy's Greatest Hits
DYEAR=2003
DGENRE=Country
TTITLE0=Stand By Your Man
TTITLE1=Singing My Song
TTITLE2=Take Me To Your World
TTITLE3=Apartment #9
TTITLE4=D-I-V-O-R-C-E
TTITLE5=I Don't Wanna Play House
TTITLE6=Your Good Girl's Gonna Go Bad
TTITLE7=Run, Angel, Run
TTITLE8=Too Far Gone
TTITLE9=Almost Persuaded
TTITLE10=My Elusive Dreams
EXTD=
EXTT0=
EXTT1=
EXTT2=
EXTT3=
EXTT4=
EXTT5=
EXTT6=
EXTT7=
EXTT8=
EXTT9=
EXTT10=
PLAYORDER=
